        <svg id='Expand_Arrow_24' width='24' height='24' viewBox='0 0 24 24' xmlns='http://www.w3.org/2000/svg' xmlns:xlink='http://www.w3.org/1999/xlink'>
          <rect width='24' height='24' stroke='none' opacity='0'/>
          <g transform="matrix(0.91 0 0 0.91 12 12)" >
            <path style="stroke: none; stroke-width: 1; stroke-dasharray: none; stroke-linecap: butt; stroke-dashoffset: 0; stroke-linejoin: miter; stroke-miterlimit: 4; fill-rule: nonzero; opacity: 1;" transform=" translate(-15, -14.99)" d="M 24.990234 8.9863281 C 24.72646293184158 8.99256433006816 24.475842610437518 9.10278123582073 24.292969 9.2929688 L 15 18.585938 L 5.7070312 9.2929688 C 5.518760128868619 9.099436056805526 5.260236101227263 8.9902501391318 4.9902344 8.9902344 C 4.583311403441767 8.990341350615525 4.217025571991593 9.23698988660775 4.063903589598271 9.614004468652404 C 3.9107816072049495 9.991019050697059 4.001357608894798 10.423219002740245 4.2929688 10.707031 L 14.292969 20.707031 C 14.683498808445279 21.097399062146913 15.316501191554721 21.097399062146913 15.707031 20.707031 L 25.707031 10.707031 C 26.00427292868914 10.42120173223119 26.09560250497537 9.982234575940652 25.937028310966724 9.60157021002416 C 25.778454116958073 9.220905844107671 25.40249179423634 8.976599504238846 24.990234 8.9863281 z" stroke-linecap="round" />
          </g>
        </svg>
